<?xml version="1.0" standalone="no"?>
<!DOCTYPE svg PUBLIC "-//W3C//DTD SVG 20010904//EN"
 "http://www.w3.org/TR/2001/REC-SVG-20010904/DTD/svg10.dtd">
<svg version="1.0" xmlns="http://www.w3.org/2000/svg"
 width="700.000000pt" height="700.000000pt" viewBox="0 0 700.000000 700.000000"
 preserveAspectRatio="xMidYMid meet">
<metadata>
Created by potrace 1.14, written by Peter Selinger 2001-2017
</metadata>
<g transform="translate(0.000000,700.000000) scale(0.100000,-0.100000)"
fill="#000000" stroke="none">
<path d="M185 6989 c4 -6 1 -9 -6 -8 -53 10 -174 -105 -161 -153 1 -5 -3 -8
-8 -8 -6 0 -10 -69 -10 -187 0 -184 9 -264 29 -271 5 -2 7 -10 4 -18 -3 -9 1
-14 12 -14 9 0 14 -3 12 -7 -2 -5 11 -23 29 -41 19 -18 34 -30 34 -27 0 3 13
-1 29 -9 16 -9 31 -12 35 -9 3 4 6 2 6 -4 0 -6 332 -10 980 -10 589 0 980 4
980 9 0 6 6 8 13 5 6 -2 23 5 36 17 14 12 21 15 17 6 -5 -9 -2 -8 7 3 8 9 20
17 27 17 7 0 10 3 7 6 -4 4 3 15 15 25 11 11 17 19 12 19 -5 0 -1 5 9 11 9 5
17 17 17 25 0 8 4 13 8 10 5 -3 7 11 6 30 -2 19 0 33 4 30 4 -2 8 12 10 31 1
19 -2 32 -7 28 -6 -3 -7 6 -2 23 5 17 5 36 -1 47 -6 10 -7 15 -1 12 11 -7 9
85 -2 104 -5 7 -4 10 2 6 6 -4 9 9 7 36 -2 23 -5 57 -6 75 0 17 -5 32 -10 32
-5 0 -6 5 -3 10 3 6 1 10 -5 10 -7 0 -10 6 -7 13 2 6 -7 22 -20 35 -13 12 -20
22 -16 22 4 0 -4 8 -20 18 -15 10 -25 21 -23 23 3 3 -4 6 -16 6 -12 1 -24 7
-28 14 -4 6 -13 8 -19 5 -6 -4 -11 -3 -11 3 0 7 -310 11 -986 11 -701 0 -983
-3 -979 -11z"/>
<path d="M3287 6990 c-9 -6 -22 -8 -27 -5 -6 3 -10 1 -10 -5 0 -6 -8 -14 -17
-17 -40 -15 -122 -121 -106 -137 4 -3 1 -6 -4 -6 -6 0 -10 -8 -8 -17 1 -10 0
-22 -4 -28 -10 -17 -10 -35 1 -29 7 4 7 0 0 -13 -7 -13 -7 -25 0 -38 8 -14 8
-20 0 -23 -7 -2 -12 -8 -12 -13 0 -6 3 -8 8 -6 4 3 7 -6 7 -19 0 -13 -4 -24
-10 -24 -5 0 -3 -5 5 -10 11 -7 11 -10 2 -10 -10 0 -10 -5 -2 -20 8 -15 8 -20
-2 -20 -9 0 -9 -3 2 -10 13 -9 13 -10 0 -10 -13 0 -13 -1 0 -10 13 -9 13 -10
0 -10 -13 0 -13 -1 0 -10 8 -5 10 -10 4 -10 -9 0 -9 -11 -3 -37 4 -21 8 -39 9
-40 0 -2 0 -8 0 -14 0 -5 4 -8 8 -5 4 3 7 -8 6 -25 -1 -19 3 -29 11 -29 8 0
17 -5 21 -12 5 -7 3 -8 -7 -3 -8 5 3 -8 24 -28 21 -21 43 -35 49 -31 6 4 8 3
5 -3 -4 -6 3 -14 16 -18 12 -4 29 -9 37 -12 8 -2 25 -4 38 -4 12 0 22 -4 22
-10 0 -5 5 -7 11 -3 19 11 229 10 229 -1 0 -7 3 -6 8 0 4 6 23 10 42 9 19 0
41 4 49 10 11 8 13 8 7 -2 -7 -12 55 12 79 31 40 31 77 67 69 67 -5 0 -3 4 4
9 7 4 15 17 17 27 2 10 4 20 5 22 2 1 4 7 5 12 1 6 4 12 5 15 1 3 3 8 4 13 1
4 4 12 8 18 4 6 5 14 1 18 -3 3 -8 17 -9 31 -2 17 1 23 9 18 7 -4 6 0 -2 10
-11 14 -11 17 0 17 9 0 10 3 4 8 -13 9 -15 42 -3 42 7 0 7 5 0 13 -6 7 -7 19
-3 26 5 7 5 28 1 47 -5 22 -4 35 4 38 7 3 4 11 -8 20 -11 9 -15 16 -9 16 5 0
10 18 9 40 -1 22 -4 40 -7 40 -4 0 -12 15 -20 33 -7 17 -23 42 -35 53 -13 12
-20 25 -16 29 4 4 3 6 -3 5 -22 -5 -36 1 -29 12 5 8 2 9 -9 5 -10 -3 -17 -2
-17 4 0 6 -4 8 -9 5 -5 -4 -11 0 -13 6 -6 17 -414 24 -441 8z"/>
<path d="M4840 6988 c0 -6 -9 -8 -20 -5 -11 3 -18 0 -17 -7 1 -6 -4 -10 -10
-8 -7 1 -13 -3 -13 -10 0 -6 -3 -9 -6 -6 -7 8 -62 -45 -57 -54 2 -5 -1 -8 -6
-8 -6 0 -11 -7 -11 -15 0 -8 -4 -15 -8 -15 -9 0 -11 -9 -15 -54 -1 -13 -5 -22
-8 -20 -3 2 -5 -29 -4 -69 2 -41 -2 -78 -9 -86 -9 -12 -8 -13 7 -8 13 5 16 3
10 -6 -11 -17 -11 -138 0 -161 7 -14 6 -16 -4 -11 -9 6 -10 3 -5 -11 4 -10 9
-23 11 -29 13 -44 19 -55 27 -55 5 0 7 -4 3 -9 -3 -5 5 -17 17 -25 12 -9 19
-16 15 -16 -4 0 -2 -6 5 -14 7 -8 16 -12 19 -10 4 2 12 -3 19 -11 7 -8 19 -15
26 -15 8 0 14 -4 14 -8 0 -5 6 -10 13 -11 32 -6 417 -7 417 -1 0 4 7 7 15 8 8
1 22 3 30 4 8 1 15 6 15 11 0 6 3 8 6 5 8 -9 94 80 94 98 0 8 5 12 10 9 6 -3
11 6 12 22 1 27 3 43 8 53 6 15 4 150 -3 150 -5 0 -5 6 0 13 10 16 10 97 0 97
-5 0 -5 6 0 13 9 15 11 67 2 67 -4 0 -5 10 -1 22 4 16 2 19 -8 13 -8 -5 -11
-4 -6 3 6 11 -10 56 -29 79 -35 44 -63 69 -73 65 -7 -2 -12 1 -12 8 0 6 -4 8
-10 5 -5 -3 -10 -2 -10 3 0 6 -7 13 -16 16 -8 3 -12 2 -9 -4 3 -6 1 -10 -4
-10 -6 0 -11 5 -11 10 0 7 -70 10 -205 10 -135 -1 -205 -5 -205 -12z"/>
<path d="M6385 6982 c-12 -12 -15 -12 -10 -3 11 19 -52 -25 -85 -58 -13 -15
-23 -29 -22 -33 1 -5 -6 -8 -15 -8 -15 0 -16 -2 -3 -10 8 -5 10 -10 4 -10 -6
0 -16 -12 -22 -26 -9 -18 -9 -23 -1 -18 8 5 8 1 1 -13 -6 -11 -11 -81 -11
-159 0 -77 0 -144 -1 -149 -2 -6 -1 -14 0 -20 2 -14 2 -208 0 -220 -1 -5 -2
-14 -1 -20 3 -15 3 -1008 1 -1020 -1 -6 -1 -14 0 -20 2 -14 2 -208 0 -220 -1
-5 -2 -14 -1 -20 3 -15 3 -1008 1 -1020 -1 -6 -1 -14 0 -20 2 -14 2 -208 0
-220 -1 -5 -2 -14 -1 -20 3 -15 3 -1008 1 -1020 -1 -6 -1 -14 0 -20 2 -14 2
-208 0 -220 -1 -5 -2 -14 -1 -20 2 -14 3 -689 1 -700 -2 -6 -1 -14 0 -20 2
-14 2 -208 0 -220 -1 -5 -2 -14 -1 -20 2 -14 3 -689 1 -700 -2 -6 -1 -14 0
-20 2 -14 2 -208 0 -220 -1 -5 -2 -14 -1 -20 1 -5 2 -72 2 -148 0 -98 3 -136
11 -131 7 5 8 2 3 -5 -8 -14 34 -103 45 -96 4 3 10 -5 13 -16 3 -11 15 -23 26
-26 12 -3 21 -9 21 -13 0 -4 10 -11 23 -15 12 -5 31 -11 42 -15 11 -4 26 -2
34 4 11 8 13 8 7 -1 -5 -10 35 -12 183 -11 119 1 188 5 184 11 -4 6 3 8 15 5
13 -4 23 0 26 8 3 8 11 13 18 12 7 -2 12 2 11 9 -2 7 3 10 10 7 8 -3 24 10 38
27 13 18 29 38 36 44 9 10 9 15 0 24 -9 10 -9 12 3 9 8 -2 14 3 12 10 -1 6 2
12 8 12 12 0 9 22 -5 32 -6 5 -6 8 2 8 15 0 16 6589 1 6607 -5 7 -6 18 -2 24
4 8 3 9 -4 5 -7 -4 -12 -1 -12 8 0 9 -4 16 -10 16 -5 0 -10 5 -10 11 0 14 -26
39 -40 39 -6 0 -8 4 -5 10 8 13 -81 54 -96 44 -8 -4 -9 -3 -5 5 6 9 -41 11
-197 11 -176 -1 -207 -4 -222 -18z"/>
<path d="M520 5454 c0 -6 -17 -10 -40 -9 -23 1 -40 -3 -40 -9 0 -8 -3 -8 -8 0
-8 12 -61 13 -79 1 -6 -4 -14 -4 -17 1 -2 4 -33 7 -68 5 -86 -3 -101 -6 -116
-21 -8 -7 -18 -10 -23 -6 -5 3 -12 -2 -15 -10 -3 -9 -12 -16 -20 -16 -7 0 -21
-13 -31 -30 -9 -16 -20 -30 -24 -30 -7 0 -22 -39 -20 -52 1 -5 -3 -8 -9 -8
-11 0 -14 -1963 -2 -1974 4 -4 7 -11 7 -14 2 -20 18 -52 26 -52 5 0 9 -10 9
-22 0 -12 3 -18 7 -15 3 4 16 -4 29 -18 12 -13 29 -26 36 -27 7 -2 16 -7 19
-11 3 -4 16 -9 27 -10 12 -1 22 -5 22 -9 0 -4 6 -5 14 -2 8 3 17 1 21 -5 4 -8
12 -8 26 -1 14 8 19 7 19 -2 0 -8 3 -9 8 -3 10 14 42 15 42 1 0 -7 3 -7 8 -1
4 6 14 10 22 10 8 0 18 -4 22 -10 5 -6 8 -5 8 4 0 11 3 11 17 0 10 -8 14 -9
10 -2 -8 13 30 12 51 -1 7 -4 12 -3 12 2 0 13 33 10 42 -3 5 -7 8 -6 8 0 0 6
9 11 20 11 11 0 20 -5 20 -11 0 -6 3 -7 8 0 4 6 14 10 22 10 8 0 18 -4 22 -10
5 -6 8 -5 8 4 0 11 3 11 17 0 10 -8 14 -9 10 -2 -8 13 30 12 51 -1 7 -4 12 -3
12 1 0 5 9 9 20 9 11 0 20 -5 20 -11 0 -6 3 -7 8 0 10 14 42 15 42 1 0 -7 3
-7 8 -1 4 6 14 10 22 10 8 0 18 -4 22 -10 5 -6 8 -5 8 4 0 11 3 11 17 0 10 -8
14 -9 10 -2 -8 13 30 12 51 -1 7 -4 12 -3 12 1 0 5 9 9 20 9 11 0 20 -5 20
-11 0 -6 3 -7 8 0 10 14 42 15 42 1 0 -7 3 -7 8 -1 4 6 14 10 22 10 8 0 18 -4
22 -10 5 -6 8 -5 8 4 0 11 3 11 17 0 10 -8 14 -9 10 -2 -8 13 30 12 51 -1 7
-4 12 -3 12 1 0 5 9 9 20 9 11 0 20 -5 20 -11 0 -6 3 -7 8 0 10 14 42 15 42 1
0 -7 3 -7 8 -1 4 6 14 10 22 10 8 0 18 -4 22 -10 5 -6 8 -5 8 4 0 11 3 11 17
0 10 -8 14 -9 10 -2 -8 13 30 12 51 -1 7 -4 12 -3 12 2 0 13 33 10 42 -3 5 -7
8 -7 8 0 0 6 17 10 37 10 28 -1 39 -6 41 -19 3 -13 0 -16 -10 -10 -7 4 -5 -2
5 -13 9 -11 14 -23 10 -27 -12 -12 -11 -70 1 -78 7 -5 7 -8 1 -8 -6 0 -10 -17
-10 -37 1 -21 -3 -44 -9 -52 -8 -11 -8 -13 2 -7 9 5 11 -2 10 -28 -2 -20 -7
-36 -13 -36 -5 0 -4 -4 4 -9 8 -5 11 -16 8 -25 -3 -8 -2 -18 4 -21 5 -4 6 -12
2 -18 -12 -18 -11 -71 1 -79 8 -6 8 -8 0 -8 -7 0 -11 -16 -10 -40 1 -22 -3
-40 -8 -40 -6 0 -6 -4 1 -8 15 -9 13 -72 -2 -72 -5 0 -4 -4 4 -9 8 -5 11 -16
8 -25 -3 -8 -2 -18 4 -21 5 -4 6 -12 2 -18 -5 -7 -8 -25 -8 -42 l0 -29 -100
-1 c-55 0 -106 -4 -112 -8 -9 -6 -11 -3 -6 10 5 14 4 16 -8 7 -9 -7 -79 -10
-194 -9 -102 1 -186 -3 -193 -8 -9 -7 -11 -5 -5 9 5 15 4 17 -8 8 -8 -6 -41
-10 -74 -9 -33 2 -66 -2 -73 -8 -9 -7 -11 -5 -5 9 5 15 4 17 -8 8 -8 -6 -56
-10 -114 -9 -55 1 -106 -3 -113 -8 -9 -7 -11 -5 -6 8 6 14 4 16 -7 9 -8 -5
-81 -10 -164 -11 -82 -1 -163 -4 -180 -7 -16 -2 -34 -4 -38 -5 -5 -1 -5 -6 -1
-13 5 -8 2 -9 -10 -5 -10 4 -19 1 -22 -8 -4 -8 -12 -15 -19 -15 -7 0 -16 -7
-19 -16 -3 -8 -11 -12 -17 -8 -7 4 -9 3 -5 -4 3 -6 0 -17 -9 -25 -8 -8 -16
-21 -17 -28 -2 -8 -10 -20 -18 -27 -8 -8 -9 -11 -2 -7 6 3 12 1 12 -4 0 -6 -4
-11 -10 -11 -6 0 -10 -62 -10 -165 0 -100 4 -165 10 -165 5 0 7 -7 4 -15 -4
-8 -1 -15 6 -15 6 0 8 -4 5 -10 -3 -5 -1 -10 5 -10 6 0 9 -4 6 -8 -6 -10 48
-72 63 -72 7 0 9 -5 6 -10 -3 -5 1 -10 10 -10 8 0 24 -4 35 -10 11 -5 29 -15
40 -20 15 -8 20 -7 20 2 0 9 3 8 10 -2 5 -8 10 -11 10 -7 0 4 10 2 22 -4 22
-12 22 -11 8 6 -14 17 -14 18 10 5 14 -7 25 -13 25 -13 0 0 11 5 24 12 13 7
21 9 17 3 -3 -6 7 -9 24 -8 17 0 30 5 30 11 0 7 3 7 8 0 11 -15 34 -18 42 -5
5 8 12 7 24 -5 9 -9 16 -12 16 -6 0 5 9 8 20 6 11 -2 20 2 20 8 0 8 3 8 9 -1
10 -16 9 -16 42 -3 15 5 30 7 34 3 10 -10 65 -11 71 -1 2 4 11 6 19 3 8 -4 12
-10 9 -15 -7 -12 29 2 38 15 6 8 8 8 8 0 0 -13 38 -12 59 0 9 6 12 5 8 -1 -4
-7 5 -10 23 -9 17 0 30 5 30 11 0 7 3 7 8 0 9 -13 52 -15 52 -3 0 5 5 6 10 3
6 -4 7 -12 3 -18 -4 -7 0 -6 10 2 9 7 17 10 17 6 0 -4 8 -1 17 6 11 10 14 10
9 1 -5 -8 -1 -11 16 -8 13 2 32 -1 43 -7 18 -9 19 -9 5 8 -14 17 -13 18 5 9
24 -12 65 -12 84 0 10 6 12 5 7 -2 -5 -8 0 -11 16 -8 13 2 32 -1 43 -7 18 -9
19 -9 5 8 -16 19 -17 20 30 -6 3 -1 16 3 29 10 13 7 21 9 17 3 -3 -6 7 -9 24
-8 17 0 30 5 30 11 0 7 3 7 8 0 11 -15 34 -18 42 -5 5 8 12 7 24 -5 9 -9 16
-12 16 -6 0 5 9 8 20 6 11 -2 20 2 20 8 0 8 3 8 9 -1 10 -16 9 -16 43 -3 15 6
30 7 32 2 6 -10 61 -9 71 1 10 9 36 -2 29 -13 -7 -12 29 2 38 15 6 8 8 8 8 0
0 -13 38 -12 59 0 9 6 12 5 8 -1 -4 -7 5 -10 23 -9 17 0 30 5 30 11 0 7 3 7 8
0 9 -13 52 -15 52 -3 0 5 5 6 10 3 6 -4 7 -12 3 -18 -4 -7 0 -6 10 2 9 7 17
10 17 6 0 -4 8 -1 17 6 11 10 14 10 9 1 -5 -8 -1 -11 16 -8 13 2 32 -1 43 -7
19 -10 19 -9 5 8 -12 15 -12 17 -1 10 18 -11 81 -14 87 -4 2 5 11 6 19 2 9 -3
23 1 32 8 11 10 14 10 9 2 -5 -9 -2 -11 8 -7 9 3 16 10 16 15 0 5 7 9 14 9 27
0 114 103 120 142 1 7 6 19 10 27 7 11 6 12 -5 6 -11 -7 -12 -6 -2 6 10 12 10
18 0 29 -7 7 -7 10 -1 7 12 -7 11 64 -2 84 -4 8 -3 9 5 5 8 -6 10 1 6 25 -3
18 -9 37 -12 42 -3 6 -2 7 4 4 12 -7 9 65 -3 84 -4 7 -3 9 3 6 11 -7 9 95 -3
114 -4 7 -3 10 2 7 5 -4 9 22 9 57 0 35 -4 61 -8 58 -5 -3 -4 4 2 15 13 24 14
35 3 28 -4 -2 -8 4 -8 14 0 10 3 17 7 15 8 -6 3 71 -7 86 -4 7 -3 9 3 6 5 -3
9 12 9 38 -1 24 -5 41 -9 38 -5 -3 -4 4 2 15 13 25 14 35 2 27 -6 -3 -7 6 -2
23 5 17 5 36 -1 47 -6 10 -7 15 -1 12 11 -7 9 85 -2 104 -5 7 -4 10 2 6 12 -7
9 65 -3 84 -4 8 -3 9 5 5 8 -6 10 1 6 25 -3 18 -9 37 -12 42 -3 6 -2 7 4 4 12
-7 9 65 -3 84 -5 8 -3 9 6 4 10 -6 12 -4 7 8 -5 13 0 16 29 13 19 -1 37 1 39
5 3 4 20 4 37 0 18 -3 236 -6 485 -5 249 0 450 -3 447 -8 -3 -4 0 -8 5 -8 6 0
11 3 11 8 0 4 16 8 36 10 21 1 33 -2 29 -8 -3 -5 -1 -10 4 -10 6 0 11 3 11 8
0 4 16 8 36 10 21 1 33 -2 29 -8 -3 -5 -1 -10 4 -10 6 0 11 3 11 8 0 4 16 8
36 10 21 1 33 -2 29 -8 -3 -5 -1 -10 4 -10 6 0 11 3 11 8 0 4 16 8 36 10 21 1
33 -2 29 -8 -3 -5 -1 -10 4 -10 6 0 11 3 11 8 0 4 16 8 36 10 21 1 33 -2 29
-8 -3 -5 -1 -10 4 -10 6 0 11 4 11 8 0 10 91 9 108 -2 7 -4 12 -2 12 6 0 9 3
9 10 -2 5 -8 10 -10 10 -4 0 14 32 13 42 -1 5 -6 8 -5 8 4 0 11 3 11 17 0 10
-8 14 -9 10 -2 -8 13 30 12 51 -1 7 -4 12 -3 12 1 0 5 9 9 20 9 11 0 20 -5 20
-11 0 -6 3 -7 8 0 10 14 42 15 42 1 0 -7 3 -7 8 -1 4 6 14 10 22 10 8 0 18 -4
22 -10 5 -6 8 -5 8 4 0 11 3 11 17 0 10 -8 14 -9 10 -2 -8 13 30 12 51 -1 7
-4 12 -3 12 1 0 5 9 9 20 9 11 0 20 -5 20 -11 0 -6 3 -7 8 0 10 14 42 15 42 1
0 -7 3 -7 8 -1 4 6 14 10 22 10 8 0 18 -4 22 -10 5 -6 8 -5 8 4 0 11 3 11 17
0 10 -8 14 -9 10 -2 -8 13 30 12 51 -1 7 -4 12 -3 12 1 0 5 9 9 20 9 11 0 20
-5 20 -11 0 -6 3 -7 8 0 10 14 42 15 42 1 0 -7 3 -7 8 -1 4 6 14 10 22 10 8 0
18 -4 22 -10 5 -6 8 -5 8 4 0 11 3 11 17 0 10 -8 14 -9 10 -2 -8 13 30 12 51
-1 7 -4 12 -3 12 1 0 5 9 9 20 9 11 0 20 -5 20 -11 0 -6 3 -7 8 0 10 14 42 15
42 1 0 -7 3 -7 8 -1 4 6 14 10 22 10 8 0 18 -4 22 -10 5 -6 8 -5 8 4 0 11 3
11 17 0 10 -8 14 -9 10 -2 -8 13 30 12 51 -1 7 -4 12 -3 12 1 0 5 9 9 20 9 11
0 20 -5 20 -11 0 -6 3 -7 8 0 10 14 42 15 42 1 0 -7 3 -7 8 -1 4 6 14 10 22
10 8 0 18 -4 22 -10 5 -6 8 -5 8 2 0 7 7 10 15 7 9 -4 15 0 15 7 0 11 2 11 9
0 7 -12 13 -12 24 -3 7 7 16 9 19 7 8 -8 58 16 58 27 0 5 4 7 9 3 6 -3 15 4
21 15 6 11 15 18 21 15 5 -4 9 0 9 8 0 8 7 18 16 21 8 3 12 10 9 16 -3 5 -1
10 4 10 6 0 11 9 11 20 0 11 5 20 11 20 8 0 7 5 -1 16 -11 12 -11 15 0 12 8
-2 13 10 14 40 1 23 -2 42 -7 42 -4 0 -5 6 0 13 10 17 10 97 -1 97 -5 0 -4 6
1 12 6 7 8 27 6 43 -4 36 -4 37 0 103 2 28 -1 52 -5 52 -5 0 -5 8 -1 18 11 22
10 163 0 180 -5 6 -4 12 0 12 5 0 8 25 8 55 0 30 -4 55 -8 55 -5 0 -5 6 0 13
10 17 10 97 -1 97 -5 0 -4 6 1 13 6 6 8 26 6 42 -4 36 -4 37 0 103 2 28 -1 52
-5 52 -5 0 -5 8 -1 18 11 22 10 163 0 180 -5 6 -4 12 0 12 5 0 8 25 8 55 0 30
-4 55 -8 55 -5 0 -5 6 0 13 10 17 10 97 -1 97 -5 0 -4 6 1 13 6 6 8 26 6 42
-4 36 -4 37 0 103 2 28 -1 52 -5 52 -5 0 -5 8 -1 18 11 22 10 163 0 180 -5 6
-4 12 2 12 11 0 8 20 -7 60 -5 14 -7 31 -5 38 3 6 -3 12 -12 12 -9 0 -14 4
-11 9 8 13 -77 98 -93 93 -8 -3 -11 0 -7 6 4 7 -1 9 -14 7 -11 -2 -20 1 -20 6
0 6 -4 8 -9 5 -5 -4 -12 0 -14 6 -4 10 -6 10 -6 1 -1 -7 -8 -10 -16 -7 -8 4
-12 11 -9 16 4 7 0 7 -12 1 -11 -5 -41 -9 -69 -8 -27 1 -55 -2 -62 -7 -7 -5
-14 -5 -17 1 -4 6 -14 7 -22 4 -9 -3 -20 0 -25 8 -5 8 -9 9 -9 3 0 -6 -17 -10
-40 -9 -23 1 -40 -3 -40 -9 0 -8 -3 -8 -8 0 -8 12 -61 13 -79 1 -6 -4 -14 -3
-17 2 -3 4 -19 7 -36 5 -19 -2 -30 1 -30 9 0 8 -3 8 -8 2 -10 -14 -145 -15
-154 -1 -5 7 -8 7 -8 1 0 -7 -38 -11 -107 -10 -60 1 -113 -2 -120 -7 -7 -5
-14 -5 -17 1 -4 6 -14 7 -22 4 -9 -3 -20 0 -25 8 -5 8 -9 9 -9 3 0 -6 -17 -10
-40 -9 -23 1 -40 -3 -40 -9 0 -8 -3 -8 -8 0 -8 12 -61 13 -79 1 -6 -4 -14 -3
-18 2 -3 6 -13 7 -21 4 -9 -3 -20 0 -25 8 -5 8 -9 9 -9 3 0 -6 -17 -10 -40 -9
-23 1 -40 -3 -40 -9 0 -8 -3 -8 -8 0 -8 12 -61 13 -79 1 -6 -4 -14 -3 -18 2
-3 6 -13 7 -21 4 -9 -3 -20 0 -25 8 -5 8 -9 9 -9 3 0 -5 -18 -9 -40 -8 -24 1
-40 -3 -40 -10 0 -8 -2 -8 -8 0 -8 12 -61 13 -79 1 -6 -4 -14 -3 -18 2 -3 6
-13 7 -21 4 -9 -3 -20 0 -25 8 -5 8 -9 10 -9 4 0 -5 -16 -11 -36 -13 -26 -1
-33 1 -28 10 6 10 4 10 -7 2 -8 -6 -31 -10 -51 -9 -21 0 -38 -4 -38 -10 0 -7
-3 -7 -8 0 -9 13 -82 15 -82 3 0 -5 -3 -7 -8 -4 -21 13 -160 -82 -148 -102 3
-6 -1 -13 -10 -16 -8 -3 -12 -10 -9 -16 3 -5 1 -10 -6 -10 -6 0 -9 -8 -6 -20
3 -11 1 -20 -5 -20 -6 0 -8 -7 -4 -15 3 -8 0 -15 -7 -15 -8 0 -6 -4 3 -10 11
-7 11 -10 2 -10 -7 0 -10 -5 -7 -11 10 -15 12 -119 3 -119 -5 0 -8 -5 -8 -11
0 -5 3 -8 8 -6 4 3 7 -6 7 -19 0 -13 -4 -24 -10 -24 -5 0 -3 -5 5 -10 11 -7
11 -10 2 -10 -10 0 -10 -5 -2 -20 8 -15 8 -20 -2 -20 -9 0 -9 -3 2 -10 13 -9
13 -10 0 -10 -13 0 -13 -1 0 -10 10 -6 11 -10 3 -10 -7 0 -13 -5 -13 -11 0 -5
3 -8 8 -6 4 3 7 -6 7 -19 0 -13 -4 -24 -10 -24 -5 0 -3 -5 5 -10 11 -7 11 -10
2 -10 -10 0 -10 -5 -2 -20 8 -15 8 -20 -2 -20 -9 0 -9 -3 2 -10 13 -9 13 -10
0 -10 -13 0 -13 -1 0 -10 10 -6 11 -10 3 -10 -7 0 -13 -5 -13 -11 0 -5 3 -8 8
-6 4 3 7 -6 7 -19 0 -13 -4 -24 -10 -24 -5 0 -3 -5 5 -10 11 -7 11 -10 2 -10
-10 0 -10 -5 -2 -20 8 -15 8 -20 -2 -20 -9 0 -9 -3 2 -10 13 -9 13 -10 0 -10
-13 0 -13 -1 0 -10 10 -6 11 -10 3 -10 -7 0 -13 -5 -13 -11 0 -5 3 -8 8 -6 4
3 7 -6 7 -19 0 -13 -4 -24 -10 -24 -5 0 -3 -5 5 -10 11 -7 11 -10 2 -10 -10 0
-10 -5 -2 -20 8 -15 8 -20 -2 -20 -9 0 -9 -3 2 -10 13 -9 13 -10 0 -10 -13 0
-13 -1 0 -10 10 -6 11 -10 3 -10 -7 0 -13 -5 -13 -11 0 -5 3 -8 8 -6 4 3 7 -6
7 -19 0 -13 -4 -24 -10 -24 -5 0 -3 -5 5 -10 11 -7 11 -10 2 -10 -10 0 -10 -5
-2 -20 8 -15 8 -20 -2 -20 -9 0 -9 -3 2 -10 13 -9 13 -10 0 -10 -13 0 -13 -1
0 -10 10 -6 11 -10 3 -10 -7 0 -13 -5 -13 -11 0 -5 3 -8 8 -6 4 3 7 -6 7 -19
0 -13 -4 -24 -10 -24 -5 0 -3 -5 5 -10 11 -7 11 -10 2 -10 -10 0 -10 -5 -2
-20 8 -15 8 -20 -2 -20 -9 0 -9 -3 2 -10 13 -9 13 -10 0 -10 -13 0 -13 -1 0
-10 10 -6 11 -10 3 -10 -7 0 -13 -5 -13 -11 0 -5 3 -8 8 -6 4 3 7 -6 7 -19 0
-13 -4 -24 -10 -24 -5 0 -3 -5 5 -10 11 -7 11 -10 2 -10 -10 0 -10 -5 -2 -20
8 -15 8 -20 -2 -20 -10 0 -10 -2 1 -9 10 -7 10 -10 1 -13 -10 -3 -10 -9 -1
-26 9 -17 9 -22 -1 -22 -9 0 -9 -3 2 -10 19 -12 50 -11 -403 -13 -202 -1 -367
1 -367 6 0 13 -2 21 -11 45 -5 13 -5 21 0 18 10 -6 6 68 -5 85 -4 7 -3 9 3 6
11 -7 9 95 -3 114 -4 7 -3 10 2 7 5 -4 9 22 9 57 0 35 -4 61 -8 58 -5 -3 -4 4
2 15 13 24 14 35 3 28 -4 -2 -8 4 -8 14 0 10 3 17 7 15 8 -6 3 71 -7 86 -4 7
-3 9 3 6 5 -3 9 12 9 38 -1 24 -5 41 -9 38 -5 -3 -4 4 2 15 13 25 14 35 2 27
-6 -3 -7 6 -2 23 5 17 5 36 -1 47 -6 10 -7 15 -1 12 11 -7 9 85 -2 104 -5 7
-4 10 2 6 12 -7 9 65 -3 84 -4 8 -3 9 5 5 8 -6 10 1 6 25 -3 18 -9 37 -12 42
-3 6 -2 7 4 4 12 -7 9 65 -3 84 -4 7 -3 9 3 6 11 -7 9 95 -3 114 -4 7 -3 9 3
6 12 -8 10 54 -3 74 -4 8 -3 9 4 5 7 -4 12 -2 12 3 0 6 -4 11 -9 11 -5 0 -8 8
-6 18 1 9 -5 26 -14 36 -10 12 -11 16 -3 12 21 -12 0 24 -36 62 -16 17 -27 34
-23 38 3 4 -2 5 -11 1 -10 -3 -19 0 -22 9 -3 9 -10 12 -16 9 -5 -3 -10 -1 -10
5 0 7 -6 10 -14 7 -7 -3 -22 0 -32 7 -11 7 -44 12 -74 11 -30 -1 -58 3 -62 9
-6 8 -8 8 -8 0 0 -7 -13 -10 -30 -9 -17 1 -30 -2 -30 -9 0 -8 -2 -8 -8 0 -9
13 -43 15 -59 2 -7 -5 -14 -5 -17 1 -4 6 -14 7 -22 4 -9 -3 -20 0 -25 8 -5 8
-9 9 -9 3 0 -6 -17 -10 -40 -9 -23 1 -40 -3 -40 -9 0 -8 -3 -8 -8 0 -8 12 -61
13 -79 1 -6 -4 -14 -3 -17 2 -3 4 -19 7 -36 5 -19 -2 -30 1 -30 9 0 8 -3 8 -8
2 -10 -14 -145 -15 -154 -1 -5 6 -8 7 -8 1 0 -14 -150 -15 -150 -1 0 7 -3 8
-8 1 -10 -14 -145 -15 -154 -1 -5 7 -8 7 -8 1 0 -7 -38 -11 -107 -10 -60 1
-113 -2 -120 -7 -7 -5 -14 -5 -17 1 -4 6 -14 7 -22 4 -9 -3 -20 0 -25 8 -5 8
-9 9 -9 3 0 -6 -17 -10 -40 -9 -23 1 -40 -3 -40 -9 0 -8 -3 -8 -8 0 -8 12 -61
13 -79 1 -6 -4 -14 -3 -18 2 -3 6 -13 7 -21 4 -9 -3 -20 0 -25 8 -5 8 -9 9 -9
3z m326 -789 c18 -1 31 1 29 4 -2 4 5 7 15 7 10 0 16 -4 14 -8 -7 -11 4 -10
28 3 15 8 19 8 14 0 -4 -6 -4 -11 -1 -11 4 0 16 5 27 11 15 8 19 8 14 0 -4 -6
-4 -11 -1 -11 4 0 16 5 27 11 11 6 18 7 15 2 -3 -4 14 -8 38 -9 26 0 41 4 38
9 -3 6 -1 7 6 3 15 -10 92 -15 86 -7 -2 4 5 7 15 7 10 0 16 -4 14 -8 -7 -11 4
-10 28 3 15 8 19 8 14 0 -4 -6 -4 -11 -1 -11 4 0 16 5 27 11 15 8 19 8 14 0
-4 -6 -4 -11 -1 -11 4 0 16 5 27 11 11 6 18 7 15 2 -3 -4 14 -8 38 -9 24 0 41
4 38 9 -3 5 2 5 13 0 11 -5 42 -8 70 -8 l50 1 0 -50 c-1 -28 -5 -54 -11 -58
-6 -5 -5 -8 4 -8 8 0 11 -7 8 -20 -3 -11 -1 -23 4 -26 5 -3 6 -11 2 -17 -12
-18 -11 -71 1 -79 8 -5 8 -8 0 -8 -6 0 -10 -17 -9 -40 1 -23 -3 -40 -9 -40 -6
0 -5 -4 3 -9 8 -5 11 -16 8 -25 -3 -8 -2 -18 4 -22 6 -3 6 -10 1 -17 -5 -7 -8
-60 -7 -119 1 -70 -3 -108 -10 -108 -6 0 -6 -3 1 -8 7 -4 10 -28 9 -57 -4 -81
-4 -80 -15 -69 -6 6 -31 8 -60 4 -33 -4 -50 -3 -51 4 0 6 -3 5 -6 -1 -3 -9
-10 -10 -24 -3 -14 8 -19 7 -19 -2 0 -10 -2 -10 -9 0 -7 11 -9 10 -14 -3 -6
-14 -9 -14 -32 1 -20 13 -25 13 -25 3 0 -11 -2 -11 -10 1 -9 13 -10 13 -10 0
0 -13 -1 -13 -10 0 -7 11 -10 11 -10 2 0 -10 -5 -10 -20 -2 -15 8 -20 8 -20
-2 0 -9 -3 -9 -10 2 -8 12 -10 12 -11 -5 l0 -20 -9 20 c-5 11 -9 14 -9 7 -1
-10 -6 -10 -21 -2 -15 8 -20 8 -20 -2 0 -9 -3 -9 -10 2 -9 13 -10 13 -10 0 0
-13 -1 -13 -10 0 -9 13 -10 13 -10 0 0 -13 -1 -13 -10 0 -9 13 -10 13 -10 0 0
-13 -1 -13 -10 0 -9 13 -10 13 -10 0 0 -13 -1 -13 -10 0 -7 11 -10 11 -10 2 0
-9 -5 -10 -19 -2 -24 12 -34 13 -27 1 7 -11 -13 -9 -31 2 -7 5 -13 5 -13 0 0
-4 -11 -8 -24 -8 -13 0 -22 3 -19 8 2 4 -1 7 -6 7 -6 0 -11 -3 -11 -7 0 -13
-110 -2 -111 10 -5 65 0 757 5 766 4 6 12 8 18 5 6 -4 26 -8 44 -9z m3077 -5
c4 0 6 4 2 9 -4 8 49 -2 58 -10 1 -1 13 3 26 10 14 8 21 9 17 2 -4 -6 -4 -11
-1 -11 4 0 16 5 27 11 11 6 18 7 15 2 -3 -4 14 -8 38 -9 26 0 41 4 38 9 -3 6
-1 7 6 3 15 -10 92 -15 86 -7 -2 4 5 7 15 7 10 0 16 -4 14 -8 -7 -11 4 -10 28
3 11 6 18 7 15 2 -3 -4 23 -8 58 -8 35 0 61 4 57 9 -3 5 0 6 7 2 19 -12 121
-14 114 -3 -3 6 -1 7 6 3 17 -11 91 -15 85 -5 -3 5 2 6 10 3 9 -3 17 -12 17
-20 2 -23 4 -28 13 -43 6 -8 5 -12 0 -8 -6 3 -9 -98 -8 -256 0 -173 -3 -267
-10 -276 -9 -12 -7 -13 7 -8 13 5 16 3 10 -6 -10 -16 -12 -128 -2 -122 4 3 2
-5 -3 -17 l-11 -23 -380 2 c-208 1 -381 4 -385 7 -3 3 -7 17 -8 31 -2 17 1 23
9 18 7 -4 6 0 -2 10 -11 14 -11 17 0 17 9 0 10 3 4 8 -5 4 -10 14 -10 22 0 8
5 18 10 22 6 5 6 8 -1 8 -14 0 -13 32 1 42 7 5 6 8 0 8 -6 0 -11 9 -11 20 0
11 4 20 9 20 4 0 5 5 1 12 -13 21 -14 59 -1 51 7 -4 6 0 -2 10 -11 14 -11 17
0 17 9 0 10 3 4 8 -14 10 -15 42 -1 42 6 0 4 5 -4 10 -11 7 -11 10 -2 10 7 0
10 5 6 12 -13 20 -13 68 0 61 6 -4 5 0 -2 9 -9 11 -10 18 -2 23 7 4 7 13 -1
28 -9 16 -9 22 0 25 6 2 8 9 4 15 -13 21 -13 58 0 50 7 -4 6 0 -2 10 -11 14
-11 17 0 17 9 0 10 3 4 8 -14 10 -15 42 -1 42 6 0 4 5 -4 10 -10 6 -11 10 -2
10 6 0 12 5 12 11 0 5 -5 7 -12 3 -8 -5 -9 -2 -4 12 5 10 9 25 9 32 0 9 4 9
11 2 5 -5 14 -10 19 -10z"/>
<path d="M3646 2342 c-2 -4 -75 -7 -160 -7 -103 1 -156 -3 -156 -9 0 -6 -5 -4
-10 4 -5 8 -10 10 -10 3 0 -6 -11 -10 -25 -9 -13 2 -22 -1 -19 -5 3 -5 -2 -9
-10 -9 -9 0 -16 -4 -16 -10 0 -5 -7 -6 -17 -3 -11 4 -14 3 -9 -5 4 -7 3 -12
-3 -12 -6 0 -21 -11 -35 -25 -14 -14 -22 -25 -19 -25 3 0 0 -8 -8 -17 -30 -38
-38 -60 -26 -72 8 -8 8 -11 -2 -11 -7 0 -9 -4 -6 -10 3 -5 1 -10 -5 -10 -8 0
-8 -6 0 -20 8 -15 8 -20 -2 -20 -9 0 -9 -3 2 -10 13 -9 13 -10 0 -10 -13 0
-13 -1 0 -10 10 -6 11 -10 3 -10 -7 0 -13 -5 -13 -11 0 -5 3 -8 8 -6 4 3 7 -6
7 -19 0 -13 -4 -24 -10 -24 -5 0 -3 -5 5 -10 11 -7 11 -10 2 -10 -10 0 -10 -5
-2 -20 8 -15 8 -20 -2 -20 -10 0 -10 -2 1 -9 11 -7 11 -9 0 -14 -12 -4 -11 -7
1 -16 11 -8 11 -11 2 -11 -10 0 -10 -5 -2 -20 8 -15 8 -20 -2 -21 -7 0 -4 -4
7 -9 l20 -9 -20 0 c-17 -1 -17 -3 -5 -11 11 -7 11 -10 2 -10 -10 0 -10 -5 -2
-20 8 -15 8 -20 -2 -20 -8 0 -9 -3 -3 -8 12 -8 14 -102 3 -102 -5 0 -8 -5 -8
-11 0 -5 3 -8 8 -6 4 3 7 -6 7 -19 0 -13 -4 -24 -8 -24 -5 0 -5 -6 0 -12 11
-19 13 -39 2 -32 -12 7 -11 -3 1 -27 8 -14 7 -19 -2 -19 -9 0 -9 -3 2 -10 13
-9 13 -10 0 -10 -13 0 -13 -1 0 -10 13 -9 13 -10 0 -10 -13 0 -13 -1 0 -10 13
-9 13 -10 0 -10 -13 0 -13 -1 0 -10 13 -9 13 -10 0 -10 -13 0 -13 -1 0 -10 11
-7 11 -10 2 -10 -10 0 -10 -5 -2 -20 8 -15 8 -20 -2 -21 -7 0 -4 -4 7 -9 l20
-9 -20 0 c-17 -1 -17 -3 -5 -11 11 -7 11 -10 2 -10 -10 0 -10 -5 -2 -20 8 -15
8 -20 -2 -20 -9 0 -9 -3 2 -10 13 -9 13 -10 0 -10 -13 0 -13 -1 0 -10 11 -7
11 -10 2 -10 -10 0 -10 -5 -2 -20 8 -15 8 -20 -2 -21 -7 0 -4 -4 7 -9 l20 -9
-20 0 c-17 -1 -17 -3 -5 -11 11 -7 11 -10 2 -10 -10 0 -10 -5 -2 -20 8 -15 8
-20 -2 -20 -8 0 -9 -3 -3 -8 12 -8 14 -102 3 -102 -5 0 -8 -5 -8 -11 0 -5 3
-8 8 -6 4 3 7 -6 7 -19 0 -13 -4 -24 -8 -24 -5 0 -5 -6 0 -12 11 -19 13 -39 2
-32 -12 7 -11 -3 1 -27 8 -14 7 -19 -2 -19 -9 0 -9 -3 2 -10 13 -9 13 -10 0
-10 -11 0 -12 -2 -3 -8 14 -9 5 -25 -17 -30 -14 -4 -399 -4 -410 -1 -3 1 -9 0
-15 -1 -12 -2 -206 -2 -220 0 -5 1 -14 2 -20 0 -11 -2 -686 -1 -700 1 -5 1
-14 0 -20 -1 -12 -2 -206 -2 -220 0 -5 1 -14 2 -20 0 -11 -2 -206 -2 -220 1
-5 1 -14 0 -20 -1 -12 -2 -206 -2 -220 0 -5 1 -14 1 -20 0 -32 -7 -56 -6 -61
2 -3 4 -10 5 -16 2 -9 -6 -197 -9 -223 -4 -5 1 -14 1 -20 0 -32 -7 -56 -6 -61
2 -3 4 -10 5 -16 2 -9 -6 -197 -9 -223 -4 -5 1 -14 1 -20 0 -32 -7 -56 -6 -61
2 -3 4 -11 5 -17 1 -6 -4 -26 -6 -45 -5 -20 2 -31 -1 -28 -7 4 -6 -2 -8 -14
-6 -11 2 -22 0 -25 -6 -4 -5 -13 -9 -21 -9 -22 0 -100 -83 -108 -114 -3 -14
-10 -26 -15 -26 -13 0 -13 -411 0 -426 6 -7 8 -18 4 -23 -3 -6 3 -19 15 -31
11 -11 20 -23 20 -26 0 -10 50 -54 61 -54 5 0 9 -4 9 -8 0 -4 16 -15 35 -24
19 -8 32 -10 28 -4 -5 8 -2 7 8 -1 10 -8 648 -11 2545 -10 2517 2 2532 2 2555
22 12 11 19 14 15 7 -13 -21 9 -13 22 9 7 12 16 18 19 15 7 -7 33 19 33 34 0
6 5 8 12 4 6 -4 8 -3 4 4 -3 6 4 21 16 33 13 12 16 18 8 14 -13 -8 -13 -6 -2
7 7 9 15 29 17 45 2 15 4 28 5 28 1 0 3 46 4 103 0 62 -3 102 -9 102 -7 0 -7
3 0 8 9 6 12 77 5 107 -1 6 -1 15 0 20 8 33 5 105 -4 105 -7 0 -8 3 -1 8 9 6
12 77 5 107 -1 6 -1 15 0 20 7 30 4 101 -5 108 -7 4 -7 10 0 15 12 8 13 52 2
70 -5 6 -4 12 0 12 11 0 10 50 0 68 -5 6 -4 12 0 12 11 0 10 50 0 68 -5 6 -5
12 0 12 4 0 8 31 8 70 0 38 -4 70 -8 70 -5 0 -5 6 0 13 11 17 11 67 0 67 -6 0
-5 5 0 13 5 6 8 32 6 57 -4 53 -4 51 0 118 1 28 -1 52 -6 52 -4 0 -5 6 0 13
10 16 10 97 0 104 -4 2 -4 10 0 16 10 16 10 107 0 107 -5 0 -5 6 0 13 10 16
10 107 0 107 -5 0 -5 6 0 13 11 17 11 78 0 101 -7 13 -6 16 3 11 7 -4 5 5 -4
24 -9 17 -15 34 -15 38 5 23 -37 86 -52 78 -4 -3 -10 3 -14 14 -5 17 -38 35
-58 32 -4 -1 -6 4 -5 10 3 10 -13 14 -77 23 -11 1 -26 -2 -33 -7 -9 -7 -11 -5
-5 9 5 15 4 17 -8 8 -9 -7 -79 -10 -194 -9 -102 1 -186 -3 -193 -8 -9 -7 -11
-5 -5 9 5 15 4 17 -8 8 -8 -6 -41 -10 -74 -9 -33 2 -66 -2 -73 -8 -9 -7 -11
-5 -5 9 5 15 4 17 -8 8 -8 -6 -56 -10 -114 -9 -55 1 -106 -3 -113 -8 -9 -7
-11 -5 -6 8 6 14 4 16 -7 9 -8 -5 -77 -9 -154 -9 -77 0 -146 -4 -152 -8 -9 -6
-11 -3 -6 10 5 14 4 16 -8 7 -8 -6 -56 -10 -114 -9 -55 1 -106 -3 -113 -8 -9
-7 -11 -5 -5 9 5 15 4 17 -8 8 -8 -6 -41 -10 -74 -9 -33 2 -66 -2 -73 -8 -9
-7 -11 -6 -6 7 6 16 -1 23 -10 8z m397 -787 c15 0 27 3 27 8 0 4 6 5 13 0 17
-11 61 -10 70 2 4 7 10 7 15 0 6 -9 77 -12 107 -5 6 1 12 1 15 0 14 -6 87 -5
101 1 9 5 19 5 23 2 10 -10 136 -10 136 0 0 4 6 5 13 0 6 -4 32 -8 57 -8 42 0
45 -2 42 -24 -3 -17 0 -21 10 -15 10 6 11 4 2 -7 -5 -8 -9 -43 -9 -79 1 -36
-3 -71 -9 -79 -9 -12 -7 -13 8 -8 14 6 16 4 9 -5 -5 -7 -9 -58 -8 -113 1 -58
-3 -106 -9 -114 -9 -12 -7 -13 8 -8 14 6 16 4 9 -5 -6 -7 -10 -40 -8 -73 1
-33 -3 -66 -9 -74 -9 -12 -7 -13 8 -8 14 6 16 4 9 -5 -5 -7 -9 -46 -8 -85 l1
-73 -33 -1 c-56 -1 -103 -1 -110 1 -5 1 -12 1 -18 0 -32 -7 -56 -6 -61 2 -3 4
-10 5 -16 2 -9 -6 -197 -9 -223 -4 -5 1 -14 1 -20 0 -32 -7 -56 -6 -61 2 -3 4
-10 5 -16 2 -9 -6 -74 -7 -190 -5 -35 1 -37 2 -28 25 5 13 6 27 2 30 -10 11
-9 46 2 46 7 0 7 3 1 8 -13 9 -16 42 -3 42 5 0 6 5 2 12 -13 21 -14 59 -1 51
7 -4 6 0 -2 10 -11 14 -11 17 0 17 9 0 10 3 4 8 -5 4 -10 14 -10 22 0 8 5 18
10 22 6 5 6 8 -1 8 -14 0 -13 32 1 42 7 5 6 8 0 8 -6 0 -11 9 -11 20 0 11 4
20 9 20 4 0 5 5 1 12 -13 21 -14 59 -1 51 7 -4 6 0 -2 10 -11 14 -11 17 0 17
9 0 10 3 4 8 -14 10 -15 42 -1 42 6 0 4 5 -4 10 -11 7 -11 10 -2 10 7 0 10 5
6 12 -11 18 -13 68 -2 62 6 -4 5 3 -1 14 -7 14 -8 23 -1 27 6 4 7 11 3 17 -10
17 -10 78 0 78 4 0 6 4 3 9 -3 5 17 8 44 7 28 -2 50 2 50 6 0 5 6 6 13 1 6 -4
24 -8 40 -8z"/>
</g>
</svg>
